<svg width="11906" height="2839" viewBox="0 0 11906 2839" fill="none" xmlns="http://www.w3.org/2000/svg">
<path d="M3523.13 655.2V2184H2636.43L2361.24 1908.82V1236.14L2636.43 960.96H3156.22V655.2H3523.13ZM2728.15 1878.24H3156.22V1266.72H2728.15V1878.24ZM3715.58 1935.02V1209.94L3964.55 960.96H4829.42V1651.1H4082.49V1878.24H4785.74V2184H3964.55L3715.58 1935.02ZM4082.49 1472.02L4519.29 1450.18V1240.51H4082.49V1472.02ZM5021.27 2184V655.2H5388.18V2184H5021.27ZM5597.13 2184V960.96H5964.04V2184H5597.13ZM5597.13 847.392V607.152H5964.04V847.392H5597.13ZM6172.99 960.96H7701.79L7972.6 1231.78V2184H7612.24V1260.17H7249.7V2184H6895.89V1260.17H6533.35V2184H6172.99V960.96ZM8182.1 2184V960.96H8549.01V2184H8182.1ZM8182.1 847.392V607.152H8549.01V847.392H8182.1ZM8757.96 764.4L9124.87 655.2V1004.64H9548.57V1310.4H9124.87V1878.24H9548.57V2184H9020.04L8757.96 1921.92V764.4ZM9678.92 1935.02V1209.94L9927.9 960.96H10792.8V1651.1H10045.8V1878.24H10749.1V2184H9927.9L9678.92 1935.02ZM10045.8 1472.02L10482.6 1450.18V1240.51H10045.8V1472.02ZM10984.6 2184V1223.04L11246.7 960.96H11862.6V1292.93H11351.5V2184H10984.6Z" fill="black"/>
<line x1="183.439" y1="2052.86" x2="1176.44" y2="663.856" stroke="black" stroke-width="451"/>
</svg>
